<mxfile host="65bd71144e">
    <diagram id="8p2O0gD7zcSRHz4o0IRK" name="페이지-1">
        <mxGraphModel dx="1031" dy="1209" grid="1" gridSize="10" guides="1" tooltips="1" connect="1" arrows="1" fold="1" page="1" pageScale="1" pageWidth="827" pageHeight="1169" math="0" shadow="0">
            <root>
                <mxCell id="0"/>
                <mxCell id="1" parent="0"/>
                <mxCell id="12" value="Environment" style="swimlane;" vertex="1" parent="1">
                    <mxGeometry x="180" y="30" width="680" height="600" as="geometry"/>
                </mxCell>
                <mxCell id="29" style="edgeStyle=orthogonalEdgeStyle;html=1;exitX=0;exitY=0.5;exitDx=0;exitDy=0;entryX=0.5;entryY=0;entryDx=0;entryDy=0;rounded=0;curved=0;" edge="1" parent="12" source="13" target="25">
                    <mxGeometry relative="1" as="geometry"/>
                </mxCell>
                <mxCell id="13" value="Scoreboard" style="swimlane;startSize=23;" vertex="1" parent="12">
                    <mxGeometry x="130" y="40" width="200" height="220" as="geometry"/>
                </mxCell>
                <mxCell id="18" value="Transaction" style="swimlane;" vertex="1" parent="13">
                    <mxGeometry x="10" y="30" width="180" height="180" as="geometry"/>
                </mxCell>
                <mxCell id="30" style="edgeStyle=orthogonalEdgeStyle;html=1;exitX=0;exitY=0.5;exitDx=0;exitDy=0;entryX=0.5;entryY=1;entryDx=0;entryDy=0;rounded=0;curved=0;" edge="1" parent="12" source="19" target="25">
                    <mxGeometry relative="1" as="geometry"/>
                </mxCell>
                <mxCell id="19" value="Scoreboard" style="swimlane;startSize=23;" vertex="1" parent="12">
                    <mxGeometry x="130" y="270" width="200" height="220" as="geometry"/>
                </mxCell>
                <mxCell id="20" value="Transaction" style="swimlane;" vertex="1" parent="19">
                    <mxGeometry x="10" y="30" width="180" height="180" as="geometry"/>
                </mxCell>
                <mxCell id="27" style="edgeStyle=orthogonalEdgeStyle;html=1;entryX=0.5;entryY=0;entryDx=0;entryDy=0;rounded=0;curved=0;" edge="1" parent="12" source="21" target="26">
                    <mxGeometry relative="1" as="geometry"/>
                </mxCell>
                <mxCell id="21" value="Generator" style="swimlane;startSize=23;" vertex="1" parent="12">
                    <mxGeometry x="350" y="40" width="200" height="220" as="geometry"/>
                </mxCell>
                <mxCell id="22" value="Transaction" style="swimlane;" vertex="1" parent="21">
                    <mxGeometry x="10" y="30" width="180" height="180" as="geometry"/>
                </mxCell>
                <mxCell id="28" style="edgeStyle=orthogonalEdgeStyle;html=1;entryX=0.5;entryY=1;entryDx=0;entryDy=0;rounded=0;curved=0;" edge="1" parent="12" source="23" target="26">
                    <mxGeometry relative="1" as="geometry"/>
                </mxCell>
                <mxCell id="23" value="Driver" style="swimlane;startSize=23;" vertex="1" parent="12">
                    <mxGeometry x="350" y="270" width="200" height="220" as="geometry"/>
                </mxCell>
                <mxCell id="24" value="Transaction" style="swimlane;" vertex="1" parent="23">
                    <mxGeometry x="10" y="30" width="180" height="180" as="geometry"/>
                </mxCell>
                <mxCell id="25" value="T2S_mbox" style="whiteSpace=wrap;html=1;aspect=fixed;" vertex="1" parent="12">
                    <mxGeometry x="20" y="210" width="80" height="80" as="geometry"/>
                </mxCell>
                <mxCell id="26" value="&lt;span style=&quot;color: rgb(0, 0, 0);&quot;&gt;D2G_mbox&lt;/span&gt;" style="whiteSpace=wrap;html=1;aspect=fixed;" vertex="1" parent="12">
                    <mxGeometry x="580" y="210" width="80" height="80" as="geometry"/>
                </mxCell>
                <mxCell id="38" style="edgeStyle=none;html=1;" edge="1" parent="12">
                    <mxGeometry relative="1" as="geometry">
                        <mxPoint x="470" y="570" as="sourcePoint"/>
                        <mxPoint x="470" y="490" as="targetPoint"/>
                    </mxGeometry>
                </mxCell>
                <mxCell id="44" style="edgeStyle=none;html=1;" edge="1" parent="12">
                    <mxGeometry relative="1" as="geometry">
                        <mxPoint x="460" y="570" as="sourcePoint"/>
                        <mxPoint x="460" y="490" as="targetPoint"/>
                    </mxGeometry>
                </mxCell>
                <mxCell id="45" style="edgeStyle=none;html=1;" edge="1" parent="12">
                    <mxGeometry relative="1" as="geometry">
                        <mxPoint x="449.67999999999995" y="570" as="sourcePoint"/>
                        <mxPoint x="449.67999999999995" y="490" as="targetPoint"/>
                    </mxGeometry>
                </mxCell>
                <mxCell id="46" style="edgeStyle=none;html=1;" edge="1" parent="12">
                    <mxGeometry relative="1" as="geometry">
                        <mxPoint x="440" y="570" as="sourcePoint"/>
                        <mxPoint x="440" y="490" as="targetPoint"/>
                    </mxGeometry>
                </mxCell>
                <mxCell id="47" style="edgeStyle=none;html=1;" edge="1" parent="12">
                    <mxGeometry relative="1" as="geometry">
                        <mxPoint x="240" y="490" as="sourcePoint"/>
                        <mxPoint x="240" y="570" as="targetPoint"/>
                    </mxGeometry>
                </mxCell>
                <mxCell id="48" style="edgeStyle=none;html=1;" edge="1" parent="12">
                    <mxGeometry relative="1" as="geometry">
                        <mxPoint x="230" y="490" as="sourcePoint"/>
                        <mxPoint x="230" y="570" as="targetPoint"/>
                    </mxGeometry>
                </mxCell>
                <mxCell id="49" style="edgeStyle=none;html=1;" edge="1" parent="12">
                    <mxGeometry relative="1" as="geometry">
                        <mxPoint x="219.67999999999995" y="490" as="sourcePoint"/>
                        <mxPoint x="219.67999999999995" y="570" as="targetPoint"/>
                    </mxGeometry>
                </mxCell>
                <mxCell id="50" style="edgeStyle=none;html=1;" edge="1" parent="12">
                    <mxGeometry relative="1" as="geometry">
                        <mxPoint x="210" y="490" as="sourcePoint"/>
                        <mxPoint x="210" y="570" as="targetPoint"/>
                    </mxGeometry>
                </mxCell>
                <mxCell id="31" value="Interface" style="rounded=0;whiteSpace=wrap;html=1;" vertex="1" parent="1">
                    <mxGeometry x="200" y="600" width="640" height="60" as="geometry"/>
                </mxCell>
                <mxCell id="37" value="Dut(Fnd_Pp)" style="swimlane;" vertex="1" parent="1">
                    <mxGeometry x="180" y="710" width="680" height="200" as="geometry"/>
                </mxCell>
                <mxCell id="40" style="edgeStyle=none;html=1;entryX=0.5;entryY=1;entryDx=0;entryDy=0;" edge="1" parent="1">
                    <mxGeometry relative="1" as="geometry">
                        <mxPoint x="480" y="710" as="sourcePoint"/>
                        <mxPoint x="480" y="660" as="targetPoint"/>
                    </mxGeometry>
                </mxCell>
                <mxCell id="41" style="edgeStyle=none;html=1;entryX=0.5;entryY=1;entryDx=0;entryDy=0;" edge="1" parent="1">
                    <mxGeometry relative="1" as="geometry">
                        <mxPoint x="440" y="710" as="sourcePoint"/>
                        <mxPoint x="440" y="660" as="targetPoint"/>
                    </mxGeometry>
                </mxCell>
                <mxCell id="42" style="edgeStyle=none;html=1;entryX=0.5;entryY=1;entryDx=0;entryDy=0;" edge="1" parent="1">
                    <mxGeometry relative="1" as="geometry">
                        <mxPoint x="400" y="710" as="sourcePoint"/>
                        <mxPoint x="400" y="660" as="targetPoint"/>
                    </mxGeometry>
                </mxCell>
                <mxCell id="43" style="edgeStyle=none;html=1;entryX=0.5;entryY=1;entryDx=0;entryDy=0;" edge="1" parent="1">
                    <mxGeometry relative="1" as="geometry">
                        <mxPoint x="360" y="710" as="sourcePoint"/>
                        <mxPoint x="360" y="660" as="targetPoint"/>
                    </mxGeometry>
                </mxCell>
            </root>
        </mxGraphModel>
    </diagram>
</mxfile>